<svg xmlns="http://www.w3.org/2000/svg" xmlns:svg="http://www.w3.org/2000/svg" id="svg2" width="64" height="64" version="1.1" viewBox="0 -64 16 6.938"><metadata id="metadata12"/><g id="g4" transform="matrix(0.03125,0,0,-0.03125,0,-54.5)"><path id="path6" d="m 6,171 v 0 0 0 c 1,0 2,-1 2,-2 l 4,-29 -4,-28 v 0 0 0 c 0,-1 -1,-2 -2,-2 -1,0 -2,1 -2,2 l -4,28 4,29 c 0,1 1,2 2,2 z m 21,15 v 0 0 0 l 6,-46 -6,-45 c 0,-1 -1,-2 -2,-2 -1,0 -2,1 -2,2 l -5,45 5,46 c 0,1 1,2 2,2 1,0 2,-1 2,-2 z m 79,43 v 0 0 0 c 2,0 4,-2 4,-4 l 4,-85 -4,-54 v 0 c 0,-2 -2,-4 -4,-4 -2,0 -4,2 -4,4 l -4,54 4,85 c 0,2 2,4 4,4 z M 65,199 v 0 0 0 c 2,0 3,-1 3,-3 l 5,-56 -5,-54 c 0,-2 -1,-3 -3,-3 -2,0 -3,1 -3,3 l -4,54 4,56 c 0,2 1,3 3,3 z M 148,82 v 0 0 c -3,0 0,0 0,0 -3,0 -5,2 -5,5 l -3,53 3,113 c 0,3 2,5 5,5 3,0 5,-2 5,-5 l 3,-113 -3,-53 c 0,-3 -2,-5 -5,-5 z m 85,0 v 0 0 c -4,0 0,0 0,0 -4,0 -6,2 -6,6 l -3,52 3,130 c 0,4 2,7 6,7 4,0 7,-3 7,-7 l 3,-130 -3,-52 v 0 0 c 0,-4 -3,-6 -7,-6 z m -43,0 v 0 0 c -3,0 0,0 0,0 -3,0 -5,3 -5,6 l -3,53 3,113 c 0,3 2,6 5,6 3,0 6,-3 6,-6 l 3,-113 -3,-53 v 0 c 0,-3 -3,-6 -6,-6 z M 85,82 v 0 0 c -2,0 0,0 0,0 -2,0 -3,2 -3,4 l -4,54 4,52 c 0,2 1,4 3,4 2,0 4,-2 4,-4 l 5,-52 -5,-54 c 0,-2 -2,-4 -4,-4 z m -40,3 v 0 0 c -1,0 0,0 0,0 -1,0 -3,2 -3,3 l -5,52 5,55 c 0,1 2,3 3,3 1,0 2,-2 2,-3 l 6,-55 -6,-52 c 0,-1 -1,-3 -2,-3 z m 167,171 v 0 0 0 c 3,0 6,-3 6,-6 l 3,-109 -3,-53 v 0 c 0,-3 -3,-6 -6,-6 -3,0 -6,3 -6,6 l -3,53 3,109 c 0,3 3,6 6,6 z M 127,82 v 0 0 c -2,0 0,0 0,0 -2,0 -5,2 -5,4 l -3,54 3,104 c 0,2 3,5 5,5 2,0 4,-3 4,-5 l 4,-104 -4,-54 c 0,-2 -2,-4 -4,-4 z m 47,5 v 0 0 0 0 c 0,-3 -2,-5 -5,-5 -3,0 -5,2 -5,5 l -3,54 3,116 c 0,3 2,5 5,5 3,0 5,-2 5,-5 l 4,-116 -4,-54 v 0 z m 81,202 v 0 0 0 c 4,0 7,-3 7,-7 l 3,-142 -3,-51 v 0 c 0,-4 -3,-7 -7,-7 -4,0 -7,3 -7,7 l -3,51 3,142 c 0,4 3,7 7,7 z m 194,-81 v 0 0 0 c 35,0 63,-28 63,-63 0,-35 -28,-63 -63,-63 H 274 c -4,0 -6,3 -6,7 v 200 c 0,4 1,5 6,7 12,5 26,8 40,8 58,0 106,-44 111,-101 8,3 15,5 24,5 z" style="fill:currentColor"/></g></svg>