<svg xmlns="http://www.w3.org/2000/svg" xmlns:svg="http://www.w3.org/2000/svg" id="svg2" width="65" height="67" version="1.1"><metadata id="metadata8"/><rect style="fill-opacity:1;stroke:none" id="rect5207" width="6.65" height="20.489" x="18.778" y="27.631" rx="1.178" ry="1.144"/><rect style="fill-opacity:1;stroke:none" id="rect5209" width="6.65" height="32.082" x="29.95" y="16.038" rx="1.178" ry="1.144"/><rect style="fill-opacity:1;stroke:none" id="rect5211" width="6.65" height="20.489" x="40.325" y="27.631" rx="1.178" ry="1.144"/><path style="font-size:medium;font-style:normal;font-variant:normal;font-weight:400;font-stretch:normal;text-indent:0;text-align:start;text-decoration:none;line-height:normal;letter-spacing:normal;word-spacing:normal;text-transform:none;direction:ltr;block-progression:tb;writing-mode:lr-tb;text-anchor:start;baseline-shift:baseline;color:#000;fill:#000;fill-opacity:1;stroke:none;stroke-width:5.5;marker:none;visibility:visible;display:inline;overflow:visible;enable-background:accumulate;font-family:Sans;-inkscape-font-specification:Sans" id="path2986" d="m 32.505554,1.207602 c -17.889667,0 -32.45987484,14.570208 -32.45987484,32.459875 0,17.889666 14.57020784,32.459874 32.45987484,32.459874 17.827626,0 32.323394,-14.475792 32.423967,-32.28034 a 3.1601268,3.1601268 0 0 0 0.03591,-0.251348 3.1601268,3.1601268 0 0 0 0,-0.07181 3.1601268,3.1601268 0 0 0 0,-0.215442 C 64.770655,15.557474 50.257556,1.207602 32.505554,1.207602 z m 0,6.3196216 c 14.361144,0 25.982684,11.4927174 26.140253,25.8529974 a 3.1601268,3.1601268 0 0 0 0,0.07181 3.1601268,3.1601268 0 0 0 0,0.215442 c 0,14.47429 -11.665963,26.140253 -26.140253,26.140253 -14.474291,0 -26.1402532,-11.665963 -26.1402532,-26.140253 0,-14.474291 11.6659622,-26.1402534 26.1402532,-26.1402534 z"/></svg>